<svg xmlns="http://www.w3.org/2000/svg" viewBox="0 0 374.27 99" width="374.27" height="99" role="img" aria-label="Encore, conceito 3 (Cartaz)"><title>Encore, conceito 3 (Cartaz)</title><defs><radialGradient id="c3m" gradientUnits="userSpaceOnUse" cx="9.9" cy="3.96" r="79.2"><stop offset="0" stop-color="#FF3D8B" stop-opacity="0.6"/><stop offset="1" stop-color="#FF3D8B" stop-opacity="0"/></radialGradient><radialGradient id="c3c" gradientUnits="userSpaceOnUse" cx="91.08" cy="7.92" r="61.38"><stop offset="0" stop-color="#3DE0FF" stop-opacity="0.45"/><stop offset="1" stop-color="#3DE0FF" stop-opacity="0"/></radialGradient><linearGradient id="c3v" gradientUnits="userSpaceOnUse" x1="0" y1="0" x2="0" y2="99"><stop offset="0" stop-color="#0E0B1A"/><stop offset="0.6" stop-color="#140E28"/><stop offset="1" stop-color="#3A1045"/></linearGradient></defs><rect x="0" y="0" width="99" height="99" rx="21.66" fill="url(#c3v)"/><rect x="0" y="0" width="99" height="99" rx="21.66" fill="url(#c3m)"/><rect x="0" y="0" width="99" height="99" rx="21.66" fill="url(#c3c)"/><path fill="#FFE14D" d="M26.3 18.56H72.7V33.26H43.31V36.97H26.3Z"/><path fill="#F5F1FF" d="M26.3 40.99H43.31V42.15H65.74V56.85H43.31V58.01H26.3Z"/><path fill="#FF3D8B" d="M26.3 62.03H43.31V65.74H72.7V80.44H26.3Z"/><path fill="#FF3D8B" d="M124.78 82.5L124.78 15.18L140.59 15.18L140.59 82.5L124.78 82.5ZM136 82.5L136 69.65L154.56 69.65L154.56 82.5L136 82.5ZM136 54.14L136 42.41L151.91 42.41L151.91 54.14L136 54.14ZM136 28.03L136 15.18L154.56 15.18L154.56 28.03L136 28.03ZM158.64 82.5L158.64 15.18L175.78 15.18L188.43 55.47L188.73 55.47L188.73 15.18L203.52 15.18L203.52 82.5L186.29 82.5L173.84 42.21L173.54 42.21L173.54 82.5L158.64 82.5ZM229.53 83.72Q223.21 83.72 219.03 81.38Q214.85 79.03 212.5 74.6Q210.15 70.16 209.19 63.73Q208.22 57.31 208.22 49.04Q208.22 41.5 209.08 35.07Q209.95 28.64 212.19 23.95Q214.44 19.26 218.62 16.66Q222.8 14.06 229.33 14.06Q235.55 14.06 239.48 16.3Q243.41 18.55 245.34 22.32Q247.28 26.09 247.59 30.89Q247.89 35.68 246.98 40.78L232.29 42.41Q232.9 37.31 232.7 33.64Q232.49 29.97 231.47 28.03Q230.45 26.09 228.62 26.09Q227.29 26.09 226.42 27.27Q225.56 28.44 225.05 30.94Q224.54 33.44 224.28 37.47Q224.03 41.5 224.03 47.21Q224.03 56.39 224.54 61.79Q225.05 67.2 226.17 69.5Q227.29 71.79 229.02 71.79Q231.37 71.79 232.34 68.78Q233.31 65.77 233.36 61.03Q233.41 56.29 232.8 51.19L247.89 53.12Q249.12 60.88 248.51 66.64Q247.89 72.4 245.5 76.18Q243.1 79.95 239.07 81.84Q235.04 83.72 229.53 83.72ZM272.68 83.72Q267.07 83.72 263.14 81.58Q259.22 79.44 256.82 75.11Q254.42 70.77 253.35 64.29Q252.28 57.82 252.28 49.15Q252.28 37.01 254.27 29.26Q256.26 21.5 260.85 17.73Q265.44 13.96 272.99 13.96Q278.7 13.96 282.68 16.05Q286.65 18.14 289.15 22.37Q291.65 26.6 292.83 33.18Q294 39.76 294 48.64Q294 57.51 292.83 64.09Q291.65 70.67 289.1 75Q286.55 79.34 282.52 81.53Q278.49 83.72 272.68 83.72ZM272.99 71.69Q274.82 71.69 275.94 69.5Q277.07 67.3 277.58 62.41Q278.09 57.51 278.09 49.45Q278.09 40.99 277.58 35.84Q277.07 30.68 275.94 28.39Q274.82 26.09 272.99 26.09Q271.25 26.09 270.18 28.44Q269.11 30.79 268.65 35.94Q268.19 41.09 268.19 49.55Q268.19 55.57 268.45 59.81Q268.7 64.04 269.21 66.64Q269.72 69.24 270.69 70.46Q271.66 71.69 272.99 71.69ZM298.69 82.5L298.69 15.18L317.25 15.18Q320.72 15.18 323.88 15.95Q327.05 16.71 329.65 18.34Q332.25 19.97 334.19 22.32Q336.12 24.67 337.2 27.88Q338.27 31.09 338.27 35.17Q338.27 38.54 337.45 41.5Q336.63 44.45 334.85 46.75Q333.06 49.04 330.41 50.63Q327.76 52.21 324.09 52.82L324.09 53.74Q329.49 53.94 332.25 55.98Q335 58.02 336.12 61.44Q337.25 64.85 337.76 69.34L339.49 82.5L323.17 82.5L322.25 71.69Q321.95 68.22 321.44 65.42Q320.93 62.61 319.55 60.98Q318.17 59.35 315.11 59.24L314.4 59.24L314.4 82.5L298.69 82.5ZM314.4 48.84L315.62 48.84Q319.09 48.84 320.77 46.19Q322.46 43.54 322.46 37.62Q322.46 32.21 321.03 29.97Q319.6 27.73 316.44 27.73L314.4 27.73L314.4 48.84ZM343.47 82.5L343.47 15.18L359.28 15.18L359.28 82.5L343.47 82.5ZM354.69 82.5L354.69 69.65L373.25 69.65L373.25 82.5L354.69 82.5ZM354.69 54.14L354.69 42.41L370.6 42.41L370.6 54.14L354.69 54.14ZM354.69 28.03L354.69 15.18L373.25 15.18L373.25 28.03L354.69 28.03Z"/></svg>
