<svg xmlns="http://www.w3.org/2000/svg" viewBox="0 0 180 180" width="180" height="180" role="img" aria-label="Encore, ícone de app do conceito 2"><title>Encore, ícone de app do conceito 2</title><defs><linearGradient id="a2" gradientUnits="userSpaceOnUse" x1="19.66" y1="37.67" x2="163.64" y2="140.21"><stop offset="0" stop-color="#FF3D8B"/><stop offset="0.55" stop-color="#FF7A1A"/><stop offset="1" stop-color="#FFE14D"/></linearGradient></defs><rect x="0" y="0" width="180" height="180" rx="0" fill="#0E0B1A"/><path d="M48.46 82.37L145.24 61.8A59.76 65.12 -12 0 1 150.99 81.58L52.73 102.46Z" fill="url(#a2)"/><path d="M148.85 71.53A59.76 65.12 -12 1 0 131.95 138.51L138.57 142.96Q139.9 143.85 139.91 142.25L140.4 98.91Q140.42 97.31 138.95 97.93L99 114.76Q97.53 115.38 98.86 116.27L105.48 120.72A22.41 35.7 -12 1 1 112.27 79.31Z" fill="url(#a2)"/></svg>
